<svg width="75" height="75" viewBox="0 0 75 75" fill="none" xmlns="http://www.w3.org/2000/svg">
<path d="M37.5 75C58.2107 75 75 58.2107 75 37.5C75 16.7893 58.2107 0 37.5 0C16.7893 0 0 16.7893 0 37.5C0 58.2107 16.7893 75 37.5 75Z" fill="#E84142"/>
<path d="M50.7284 38.4744C52.0276 36.2303 54.1241 36.2303 55.4233 38.4744L63.5138 52.6772C64.813 54.9213 63.75 56.752 61.1516 56.752H44.8524C42.2835 56.752 41.2205 54.9213 42.4902 52.6772L50.7284 38.4744ZM35.0788 11.1319C36.378 8.8878 38.4449 8.8878 39.7441 11.1319L41.5453 14.3799L45.7973 21.8504C46.8307 23.9764 46.8307 26.4862 45.7973 28.6122L31.5355 53.3268C30.2363 55.3347 28.0807 56.6043 25.689 56.752H13.8485C11.25 56.752 10.187 54.9508 11.4863 52.6772L35.0788 11.1319Z" fill="white"/>
</svg>
