<svg width="100" height="100" viewBox="0 0 100 100" fill="none" xmlns="http://www.w3.org/2000/svg">
<path d="M50 100C77.6142 100 100 77.6142 100 50C100 22.3858 77.6142 0 50 0C22.3858 0 0 22.3858 0 50C0 77.6142 22.3858 100 50 100Z" fill="white"/>
<path d="M67.6378 51.2992C69.3701 48.3071 72.1654 48.3071 73.8976 51.2992L84.685 70.2362C86.4173 73.2283 85 75.6693 81.5354 75.6693H59.8031C56.3779 75.6693 54.9606 73.2283 56.6535 70.2362L67.6378 51.2992ZM46.7717 14.8425C48.5039 11.8504 51.2598 11.8504 52.9921 14.8425L55.3937 19.1732L61.063 29.1339C62.4409 31.9685 62.4409 35.315 61.063 38.1496L42.0472 71.1024C40.315 73.7795 37.4409 75.4724 34.252 75.6693H18.4646C15 75.6693 13.5827 73.2677 15.315 70.2362L46.7717 14.8425Z" fill="#E84142"/>
</svg>
