<svg width="52" height="47" viewBox="0 0 52 47" fill="none" xmlns="http://www.w3.org/2000/svg">
<path d="M35.5 25C42.4036 25 48 19.4036 48 12.5C48 5.59644 42.4036 0 35.5 0C28.5964 0 23 5.59644 23 12.5C23 19.4036 28.5964 25 35.5 25Z" fill="white"/>
<path d="M39.9095 12.8248C40.3425 12.0768 41.0414 12.0768 41.4744 12.8248L44.1713 17.559C44.6043 18.3071 44.25 18.9173 43.3839 18.9173H37.9508C37.0945 18.9173 36.7402 18.3071 37.1634 17.559L39.9095 12.8248ZM34.6929 3.71062C35.126 2.96259 35.815 2.96259 36.248 3.71062L36.8484 4.7933L38.2658 7.28346C38.6102 7.99212 38.6102 8.82873 38.2658 9.53739L33.5118 17.7756C33.0788 18.4449 32.3602 18.8681 31.563 18.9173H27.6162C26.75 18.9173 26.3957 18.3169 26.8288 17.559L34.6929 3.71062Z" fill="black"/>
<path fill-rule="evenodd" clip-rule="evenodd" d="M12.6246 40.5093V21.794H19.6543C22.6338 22.4325 25.6133 24.3684 28.5927 26.6134H34.0523C36.5239 26.7908 37.8189 29.7909 35.415 31.7623C33.5021 33.4448 30.9755 33.3485 28.3854 33.0698C26.5994 32.9634 26.5232 35.8368 28.3854 35.8469C29.0329 35.9077 29.7354 35.7253 30.3491 35.7253C33.5825 35.7202 36.2403 34.9803 37.8697 31.9245L38.6865 29.6389L46.8081 24.8195C50.871 23.218 53.7574 28.3061 50.7652 31.8484C44.8825 36.972 38.8516 41.1884 32.681 44.5939C28.1991 47.8575 23.7172 47.746 19.2396 44.5939L12.6246 40.5093ZM0 20H10.5085V42.3894H0V20Z" fill="white"/>
</svg>
