<svg width="44" height="47" viewBox="0 0 44 47" fill="none" xmlns="http://www.w3.org/2000/svg">
<g clip-path="url(#clip0_7_1108)">
<path d="M26.3866 2.70801H11.8029C10.8588 2.70801 9.99767 2.86483 9.2195 3.17464C8.43738 3.48828 7.71452 3.96257 7.05485 4.60514L7.0588 4.60897C6.7902 4.86906 6.55319 5.1368 6.33989 5.41219C5.14696 5.45809 4.00144 5.63021 2.89936 5.92855C2.93096 5.8444 2.96651 5.76026 3.00206 5.67993C3.47213 4.57837 4.16339 3.5839 5.08376 2.69653L5.08771 2.70036L5.09166 2.69653C6.01203 1.80534 7.03905 1.13599 8.16878 0.684652C9.2906 0.225667 10.5033 0 11.8029 0H18.4113H32.9951C34.2907 0 35.5073 0.225667 36.641 0.677002C37.7786 1.13216 38.8056 1.80151 39.7221 2.68888L39.7181 2.69271C40.6424 3.58773 41.3337 4.58219 41.7998 5.67228C42.2659 6.77002 42.499 7.94426 42.499 9.20264V9.23706H39.7023V9.20264C39.7023 8.28849 39.5404 7.45467 39.2204 6.70117C38.8965 5.94385 38.4067 5.2439 37.747 4.60514L37.7431 4.60132L37.7391 4.60514C37.0716 3.95874 36.3526 3.48446 35.5745 3.17464C34.7963 2.86483 33.9312 2.70801 32.9911 2.70801H26.3866V2.70801ZM34.5869 15.2765H43.6998V17.4146L38.7345 22.3028H44V24.7966H34.2077V22.429L38.936 17.7742H34.5869V15.2765ZM28.8277 11.6659H32.5961V14.1405H28.8277V11.6659V11.6659ZM28.8277 15.2765H32.5961V24.7966H28.8277V15.2765V15.2765ZM26.4024 24.7966H22.8828V23.2629C22.3575 23.894 21.8321 24.3453 21.3028 24.613C20.7695 24.8808 20.1178 25.0147 19.3396 25.0147C18.3047 25.0147 17.4949 24.7163 16.9064 24.112C16.3178 23.5115 16.0255 22.5859 16.0255 21.3351V15.2765H19.8136V20.5204C19.8136 21.1171 19.9282 21.5417 20.1533 21.7941C20.3824 22.0466 20.6984 22.1689 21.1093 22.1689C21.5556 22.1689 21.919 22.0007 22.2074 21.6679C22.4918 21.3313 22.634 20.7308 22.634 19.8626V15.2727H26.4024V24.7966ZM12.5771 22.8689C13.0985 23.2208 13.4382 23.4426 13.6001 23.5306C13.8371 23.6606 14.1611 23.8136 14.5679 23.9896L13.4105 26.2616C12.8259 25.9862 12.2453 25.6611 11.6725 25.2824C11.0997 24.9037 10.6968 24.6169 10.4717 24.4294C9.54736 24.8158 8.38998 25.0147 6.99165 25.0147C4.92971 25.0147 3.30622 24.4945 2.1133 23.4541C0.703115 22.2301 0 20.5013 0 18.2752C0 16.1142 0.616213 14.4351 1.84864 13.2379C3.08107 12.0407 4.7954 11.444 7.00745 11.444C9.259 11.444 10.9931 12.0292 12.2176 13.1996C13.4421 14.3662 14.0544 16.0415 14.0544 18.2179C14.0544 20.1571 13.5606 21.7061 12.5771 22.8689ZM9.36565 20.7882C9.70141 20.2106 9.86731 19.3462 9.86731 18.1911C9.86731 16.8677 9.61056 15.9229 9.10495 15.353C8.59539 14.7869 7.89227 14.5039 6.9956 14.5039C6.15818 14.5039 5.48272 14.7946 4.96526 15.3722C4.44385 15.9497 4.18709 16.8562 4.18709 18.084C4.18709 19.5183 4.4399 20.5243 4.94551 21.1018C5.45507 21.6794 6.14633 21.9701 7.0272 21.9701C7.31161 21.9701 7.58021 21.9433 7.83302 21.8897C7.47751 21.5608 6.9245 21.251 6.16213 20.9565L6.81785 19.4992C7.18916 19.5642 7.48146 19.6445 7.68687 19.7402C7.89622 19.8358 8.29913 20.0844 8.90349 20.4937C9.0457 20.5893 9.19975 20.6887 9.36565 20.7882ZM5.61307 31.0082C5.93303 31.7273 6.41494 32.3928 7.0509 33.0125L7.1141 33.0775C7.75797 33.6818 8.46108 34.1408 9.22345 34.443C10.0016 34.7528 10.8627 34.9096 11.8029 34.9096H18.0677C18.8419 34.9096 19.466 35.5177 19.466 36.2636C19.466 36.4242 19.4384 36.5811 19.3831 36.7264C19.154 37.5832 18.8893 38.4246 18.597 39.2432C18.2889 40.1038 17.9531 40.9338 17.5858 41.7255C17.4278 42.0812 17.2461 42.4293 17.0446 42.7735C18.2573 42.2419 19.3949 41.6375 20.4614 40.9567H20.4654L20.4614 40.9529C21.6386 40.207 22.7248 39.3809 23.7282 38.4705C24.7433 37.5488 25.6677 36.5428 26.509 35.4604C26.7816 35.1085 27.2003 34.9211 27.6229 34.9211V34.9172H32.999C33.9391 34.9172 34.8003 34.7604 35.5784 34.4506C36.3645 34.137 37.0913 33.6589 37.7549 33.0201C38.4146 32.3814 38.9044 31.6814 39.2283 30.9241L39.2599 30.8476H42.1909C42.0882 31.2262 41.9618 31.5934 41.8077 31.953C41.3416 33.0469 40.6464 34.0452 39.7221 34.9402C38.7977 35.8276 37.7707 36.5007 36.641 36.9521C35.5113 37.4034 34.2986 37.6329 33.003 37.6329H28.3024C27.4768 38.6465 26.588 39.5836 25.6361 40.448C24.5063 41.4769 23.2897 42.4063 21.9901 43.2287L21.9862 43.2249C20.6787 44.0587 19.2843 44.7892 17.8109 45.4127C16.3376 46.0361 14.7694 46.5563 13.1143 46.9732C12.6245 47.0956 12.0794 46.9541 11.7199 46.5602C11.2103 46.0017 11.2656 45.1488 11.8384 44.6554C12.5771 44.0204 13.2051 43.3817 13.7265 42.7391L13.7858 42.6588C14.3112 42.0009 14.7259 41.3316 15.0301 40.6584L15.034 40.6469C15.3777 39.9049 15.6897 39.1475 15.9623 38.3788C16.0492 38.134 16.1361 37.8853 16.2191 37.6329H11.8029C10.5072 37.6329 9.29455 37.4034 8.16483 36.9521C7.0667 36.5122 6.06733 35.8658 5.16276 35.0167C5.13116 34.9937 5.10351 34.967 5.07586 34.9402C4.15944 34.0528 3.46422 33.0584 2.99811 31.9568C2.79271 31.4749 2.63471 30.9776 2.5162 30.4613C3.49583 30.7367 4.5268 30.9241 5.61307 31.0082Z" fill="white"/>
</g>
<defs>
<clipPath id="clip0_7_1108">
<rect width="44" height="47" fill="white"/>
</clipPath>
</defs>
</svg>
