<svg width="45" height="45" viewBox="0 0 45 45" fill="none" xmlns="http://www.w3.org/2000/svg">
<path d="M22.5 45C34.9264 45 45 34.9264 45 22.5C45 10.0736 34.9264 0 22.5 0C10.0736 0 0 10.0736 0 22.5C0 34.9264 10.0736 45 22.5 45Z" fill="white"/>
<path d="M30.4371 23.0846C31.2166 21.7381 32.4745 21.7381 33.254 23.0846L38.1083 31.6063C38.8878 32.9527 38.25 34.0511 36.691 34.0511H26.9115C25.3701 34.0511 24.7323 32.9527 25.4941 31.6063L30.4371 23.0846ZM21.0473 6.67909C21.8268 5.33264 23.067 5.33264 23.8465 6.67909L24.9272 8.62791L27.4784 13.1102C28.0985 14.3858 28.0985 15.8917 27.4784 17.1673L18.9213 31.996C18.1418 33.2007 16.8485 33.9626 15.4134 34.0511H8.3091C6.75005 34.0511 6.11225 32.9704 6.89178 31.6063L21.0473 6.67909Z" fill="#E84142"/>
</svg>
